<svg xmlns="http://www.w3.org/2000/svg" width="200" height="42" fill="none"><path fill="#FBFF48" d="M0 15.2184h200v11.9565H0z"/><path fill="#962ADB" d="M67.9888 14.8725c.1095 7.3003-1.7845 14.0043-6.0607 19.9409-2.0221 2.807-4.5981 4.9394-7.9525 5.9531a11.436 11.436 0 0 1-6.0673.1656c-3.0654-.7453-4.644-2.8424-4.598-6.0447.0405-2.7077.936-5.2023 2.0253-7.6261 1.2732-2.8314 2.6275-5.6318 3.9018-8.4565a4.9047 4.9047 0 0 0 .4609-1.8199c.0263-.8834-.716-1.3361-1.513-.9386a3.2398 3.2398 0 0 0-1.1309.9762c-2.1896 3.0257-4.3463 6.0735-6.5074 9.119-2.7216 3.8341-5.4213 7.6835-8.1616 11.5032-1.7286 2.4095-4.0353 3.7236-7.0547 3.5613-3.4223-.1899-5.9118-2.4725-6.4746-5.8825-.4017-2.4459.0395-4.819.5168-7.1998a5423.9522 5423.9522 0 0 0 4.1043-20.6896 8.1047 8.1047 0 0 0 .1215-1.5206c0-.783-.2189-1.504-1.0006-1.8198-.8079-.3258-1.5907-.1646-2.2739.3942-.8637.7078-1.017 1.7282-1.1528 2.743-.4204 3.1317-.8178 6.2678-1.2414 9.3996-.219 1.6564-1.1244 2.5983-2.518 2.6833-1.3302.0817-2.4085-.763-2.3659-2.0981.219-6.2281 2.3954-11.5275 7.5048-15.3096 2.542-1.8828 5.4739-2.1136 8.479-1.6564.9484.1371 1.8753.397 2.7578.773 2.1994.9696 3.1256 2.8325 2.7304 5.2188-.3668 2.2085-1.3926 4.1465-2.5432 6.0105-2.8464 4.607-5.7607 9.1721-8.5831 13.7946a13.1391 13.1391 0 0 0-1.3849 3.2642c-.3032 1.0767.2682 2.1588 1.1036 2.6348 1.0236.5808 2.4085.5609 3.1748-.2407a20.991 20.991 0 0 0 2.3932-2.9473c3.8011-5.6837 7.554-11.4038 11.3299-17.0997.9995-1.5084 2.045-3.0014 3.6358-3.9334.6568-.3865 1.4232-.7111 2.1731-.805 2.0221-.254 3.2559.3975 3.916 2.3366.7313 2.1346 1.1944 4.3641 1.7166 6.5671.9853 4.215 1.9126 8.4455 2.9133 12.6572a7.0008 7.0008 0 0 0 .9196 2.0771c1.1232 1.7668 3.3237 2.1136 4.9418.7995a5.0188 5.0188 0 0 0 1.2043-1.3516c1.1177-1.9656 2.1895-3.9566 3.2405-5.9631.8496-1.6233.5354-3.1195-.5277-4.5617-2.0724-2.8005-4.0944-5.6351-6.1231-8.4654-.7105-.9938-1.4506-1.9689-2.0614-3.0212-1.6904-2.912-.9142-5.6837 2.0987-7.1436C59.998-.0904 62.0693-.4173 64.0947.74c1.2042.6846 1.883 1.8287 2.38 3.0732 1.0838 2.711 1.3543 5.5799 1.5064 8.4631.0471.8602.0077 1.7293.0077 2.5962ZM168.15 41.2997c-2.812.0353-5.619-.0795-8.333-.8934a11.8456 11.8456 0 0 1-3.025-1.3615c-2.981-1.9347-3.466-5.6075-.948-8.1153 1.532-1.5261 3.345-2.7795 5.11-4.045 3.995-2.8622 8.042-5.6494 12.056-8.4863.44-.296.825-.6675 1.138-1.0976.548-.8006.12-1.6675-.838-1.673a4.7503 4.7503 0 0 0-1.752.3732c-3.539 1.429-7.057 2.9131-10.597 4.3409a7.4853 7.4853 0 0 1-4.028.4263c-2.978-.476-4.898-2.933-4.798-6.0161.118-3.664 1.751-6.5273 4.478-8.8341 2.757-2.33 6.003-3.6441 9.434-4.5276a41.2746 41.2746 0 0 1 17.138-.7387c1.224.2032 2.426.6957 3.565 1.2147 1.18.5378 1.931 1.5283 2.197 2.8501.407 2.0252-.571 3.4895-2.614 3.6375-1.325.096-2.675-.0144-4.007-.1292-5.513-.4782-11.024-.9939-16.531-1.4952-1.385-.1259-2.77-.2474-4.153-.3755-1.103-.1016-2.176-.0132-3.165.5312-.823.4538-1.246 1.1738-1.262 2.119-.014.91.418 1.6322 1.211 1.9591 1.017.4196 2.08.816 3.165.9596 6.164.8149 12.338 1.536 18.502 2.3267 1.883.2407 3.613.8547 4.572 2.7098 1.413 2.7298.514 5.9024-2.166 7.3766-1.055.5808-2.208 1.0082-3.355 1.3825-6.321 2.0584-12.656 4.0759-18.983 6.1155-.554.1726-1.095.3878-1.618.6438-1.221.6172-1.761 1.8927-1.374 3.1372.415 1.3251 1.649 2.2394 2.956 1.9645 1.253-.2639 2.469-.7244 3.683-1.1496 6.226-2.182 12.436-4.417 18.68-6.5406 1.142-.3887 2.425-.5002 3.641-.4869 1.505.0165 2.518 1.0446 2.785 2.5519.438 2.4361-.265 4.4171-2.328 5.8626-1.926 1.3505-4.142 1.8486-6.376 2.287a66.8974 66.8974 0 0 1-12.06 1.1959ZM109.192 33.9825c-.069 2.1842-.406 4.2757-2.134 5.7853-2.094 1.8286-4.545 1.8452-6.994.954-2.3676-.8624-3.3748-2.7805-3.4515-5.2463-.0361-1.1728-.0405-2.3455-.081-3.5171a3.3051 3.3051 0 0 0-.1653-.8978c-.3022-.9221-1.0619-1.271-1.9148-.815a9.5592 9.5592 0 0 0-1.6104 1.133c-2.9723 2.4901-5.8822 5.0576-8.9082 7.4781-1.9991 1.6001-4.2937 2.6249-6.9453 2.3312-2.3198-.2573-4.1678-1.313-5.0086-3.621-.8342-2.288-.9317-4.5727.8145-6.5405 1.3225-1.4897 3.1311-2.118 5.0207-2.2086 4.9462-.2407 9.899-.3313 14.8485-.5013a17.8104 17.8104 0 0 0 2.9285-.307c1.6258-.3313 2.4206-1.271 2.6275-2.933.7488-6.0734 1.5086-12.1403 2.2134-18.2204a7.6522 7.6522 0 0 0-.156-2.6425c-.4678-1.9038-2.5118-2.5774-4.0806-1.4146-1.4528 1.0778-2.31 2.6248-3.0851 4.1962-2.2793 4.6324-4.5072 9.2891-6.7624 13.9326-1.5251 3.1372-3.9599 4.6379-7.0592 4.3652-3.9631-.3457-6.3563-4.8312-4.3408-8.3096a11.393 11.393 0 0 1 2.5837-3.0589c4.8674-3.9754 9.795-7.88 14.7412-11.7571C93.7639 1 95.4663.2216 97.4062.098c3.2518-.2054 5.5728 1.325 6.3808 4.5109.682 2.6856 1.141 5.4308 1.655 8.1595 1.16 6.1574 2.303 12.3181 3.429 18.4821.163.9011.218 1.8221.321 2.732ZM125.692 41.2303c-3.187.053-5.414-1.5029-6.263-4.3497-.864-2.9031-1.56-5.8526-2.318-8.7911-1.645-6.3621-3.284-12.7249-4.918-19.0884-.379-1.4842-.636-2.975-.245-4.5275.867-3.4542 4.965-5.443 8.135-3.9036 2.089 1.0137 3.144 3.6209 2.101 5.7687-.782 1.6078-1.892 3.0555-2.879 4.5584-.502.762-1.08 1.4731-1.572 2.2406-.184.286-.354.6924-.297.9993.085.4572.271 1.0303.612 1.2655.304.2121.964.1944 1.314 0 .766-.4417 1.423-1.0457 2.122-1.5945 1.673-1.3174 3.298-2.7022 5.036-3.9323.709-.5025 1.634-.889 2.487-.9486 1.861-.1303 3.146 1.5835 2.585 3.3769-.354 1.1318-.971 2.1776-1.441 3.2752a6498.784 6498.784 0 0 0-7.138 16.7109c-.459 1.0844-.736 2.2218-.456 3.4299.483 2.0804 2.678 2.9694 4.444 1.7668 1.004-.6824 1.626-1.6917 2.015-2.8048a700.6163 700.6163 0 0 0 3.792-11.1333c2.039-6.1364 4.05-12.2817 6.076-18.4214.569-1.7282 1.365-3.2962 3.002-4.2592 2.01-1.1815 4.656-1.048 6.275.317 1.716 1.4466 2.416 4.257 1.557 6.4345a13.648 13.648 0 0 1-1.079 2.1865 11027.2005 11027.2005 0 0 1-16.496 26.4793 26.0684 26.0684 0 0 1-1.96 2.7165c-1.257 1.5184-2.874 2.3068-4.491 2.2284Z"/></svg>